<svg width="0" height="0" >
  <symbol fill="inherit" xmlns="http://www.w3.org/2000/svg" id="shop">
    <path fill-rule="evenodd" clip-rule="evenodd" d="M0.791016 1C0.791016 0.447715 1.23873 0 1.79102 0H5.57291C6.05815 0 6.47337 0.348357 6.5577 0.826215L6.91235 2.83594H24.851H24.8513C25.069 2.83589 25.2841 2.88413 25.481 2.97719C25.6781 3.07036 25.852 3.20612 25.9903 3.37466C26.1285 3.5432 26.2276 3.74034 26.2804 3.95185C26.3332 4.1633 26.3385 4.38384 26.2957 4.59757L26.2957 4.5977L24.5939 13.1068L24.5938 13.107C24.527 13.4409 24.3464 13.7414 24.083 13.9573C23.8195 14.1731 23.4893 14.2909 23.1487 14.2907L23.1424 14.2907V14.2907L8.91615 14.1908L9.24831 16.0731H23.5369C24.0892 16.0731 24.5369 16.5208 24.5369 17.0731C24.5369 17.6253 24.0892 18.0731 23.5369 18.0731H8.40933C7.92409 18.0731 7.50888 17.7247 7.42455 17.2468L4.73393 2H1.79102C1.23873 2 0.791016 1.55228 0.791016 1ZM8.56276 12.1883L22.7181 12.2876L24.2084 4.83594H7.26529L8.56276 12.1883ZM12.7911 21.7779C12.7911 22.4529 12.2439 23.0001 11.5689 23.0001C10.8939 23.0001 10.3467 22.4529 10.3467 21.7779C10.3467 21.1029 10.8939 20.5557 11.5689 20.5557C12.2439 20.5557 12.7911 21.1029 12.7911 21.7779ZM21.3468 21.7779C21.3468 22.4529 20.7996 23.0001 20.1246 23.0001C19.4496 23.0001 18.9023 22.4529 18.9023 21.7779C18.9023 21.1029 19.4496 20.5557 20.1246 20.5557C20.7996 20.5557 21.3468 21.1029 21.3468 21.7779Z" fill="white"/>
  </symbol>
  <symbol fill="inherit" xmlns="http://www.w3.org/2000/svg" id="search">
  <path d="M21.4692 18.8921L16.7086 14.1315C17.8547 12.6057 18.4734 10.7485 18.4713 8.84016C18.4713 3.96573 14.5056 0 9.63118 0C4.75674 0 0.791016 3.96573 0.791016 8.84016C0.791016 13.7146 4.75674 17.6803 9.63118 17.6803C11.5395 17.6824 13.3967 17.0637 14.9225 15.9175L19.6831 20.6781C19.9241 20.8936 20.2384 21.0085 20.5615 20.9995C20.8846 20.9905 21.192 20.8581 21.4205 20.6295C21.6491 20.401 21.7815 20.0936 21.7905 19.7705C21.7996 19.4474 21.6846 19.1331 21.4692 18.8921ZM3.31678 8.84016C3.31678 7.59129 3.68711 6.37047 4.38094 5.33207C5.07478 4.29367 6.06095 3.48434 7.21476 3.00642C8.36856 2.52849 9.63818 2.40345 10.8631 2.64709C12.0879 2.89073 13.213 3.49212 14.0961 4.3752C14.9792 5.25829 15.5806 6.38341 15.8242 7.60828C16.0679 8.83315 15.9428 10.1028 15.4649 11.2566C14.987 12.4104 14.1777 13.3966 13.1393 14.0904C12.1009 14.7842 10.88 15.1546 9.63118 15.1546C7.95711 15.1526 6.35218 14.4866 5.16844 13.3029C3.98469 12.1192 3.31878 10.5142 3.31678 8.84016Z" fill="#FAFAFA"/>
  </symbol>
  <symbol fill="inherit" xmlns="http://www.w3.org/2000/svg" id="logo">
  <path fill-rule="evenodd" clip-rule="evenodd" d="M17.791 2.20861C15.0404 2.45357 12.4698 3.36584 10.2346 4.78975L17.791 12.9941V8.50001V2.20861ZM8.60155 5.96891C7.56555 6.81237 6.6247 7.77579 5.79886 8.83925L17.8657 21.6442V16.0273L8.60155 5.96891ZM4.63845 10.5241C3.90665 11.7282 3.30972 13.0293 2.86992 14.4052L17.8657 30.1857V24.5605L4.63845 10.5241ZM2.29668 16.7053C2.10191 17.7798 2 18.8886 2 20.0228V22.058L17.8657 38.7161V33.089L2.29668 16.7053ZM2 24.9579V31.4234L11.6237 41.0684H17.3442L2 24.9579ZM2 34.2549V35.9772C2 37.7475 2.24819 39.456 2.71018 41.0684H8.79838L2 34.2549ZM3.41202 43.0684C4.08745 44.6837 4.98652 46.1746 6.06835 47.5H19.291L32.5151 47.5C33.5969 46.1746 34.4959 44.6837 35.1711 43.0684H19.2909H3.41202ZM35.8727 41.0684C36.3345 39.4561 36.5824 37.7476 36.5821 35.9774V35.9772V34.2548L29.7836 41.0684H35.8727ZM36.5821 31.4233V25.7286L21.2762 41.0684H26.9583L36.5821 31.4233ZM36.5821 22.897V20.0228C36.5821 19.1124 36.5164 18.2183 36.3898 17.3452L19.8657 33.1173V39.6505L36.5821 22.897ZM35.9038 15.0443C35.449 13.4176 34.7769 11.8874 33.9226 10.4888L19.8657 24.5769V30.3525L35.9038 15.0443ZM32.766 8.8164C31.9363 7.75138 30.991 6.7871 29.9502 5.94367L19.8657 16.0505V21.7453L32.766 8.8164ZM28.3042 4.76175C25.8099 3.1834 22.9008 2.24096 19.791 2.14945V8.50001V13.2938L28.3042 4.76175ZM30.6047 49.5L19.291 49.5H7.97877C11.0153 52.2173 14.9735 53.8579 19.291 53.8579C23.6095 53.8579 27.5681 52.2173 30.6047 49.5ZM19.291 0.142103C8.60823 0.142103 0 9.07415 0 20.0228V35.9772C0 46.9278 8.6083 55.8579 19.291 55.8579C29.9755 55.8579 38.5839 46.928 38.5821 35.9772V35.9771V20.0228C38.5821 9.07422 29.9758 0.142103 19.291 0.142103Z" fill="#7EB693"/>
  </symbol>
  <symbol fill="inherit" xmlns="http://www.w3.org/2000/svg" id="arrow">
  <path d="M4.47641 1.12891L7.87095 4.19342L4.47641 7.25794M7.39949 4.19342H0.516113" stroke="white" stroke-linecap="round" stroke-linejoin="round"/>
  </symbol>
  <symbol fill="inherit" xmlns="http://www.w3.org/2000/svg" id="star">
  <path d="M6.76839 1.09367C7.07599 0.189974 8.35411 0.189977 8.66172 1.09367L9.64524 3.98313C9.78318 4.3884 10.1638 4.66091 10.5919 4.66091H13.6721C14.6521 4.66091 15.0472 5.92416 14.242 6.48263L11.8313 8.15456C11.4644 8.40901 11.3106 8.87584 11.4545 9.29851L12.394 12.0586C12.7048 12.9718 11.6701 13.7523 10.8774 13.2025L8.28495 11.4046C7.9422 11.1668 7.48791 11.1668 7.14516 11.4046L4.55269 13.2025C3.76002 13.7523 2.72529 12.9718 3.03613 12.0586L3.97561 9.29851C4.11948 8.87584 3.96572 8.40901 3.59884 8.15456L1.1881 6.48263C0.382867 5.92416 0.778054 4.66091 1.758 4.66091H4.83821C5.26631 4.66091 5.64692 4.3884 5.78487 3.98313L6.76839 1.09367Z" fill="#FFA858"/>
  </symbol>

</svg>  