<svg width="0" height="0" >
  <symbol id="shop" fill="inherit" xmlns="http://www.w3.org/2000/svg"  class='icon'>
    <path fill-rule="evenodd" clip-rule="evenodd" d="M0.791016 1C0.791016 0.447715 1.23873 0 1.79102 0H5.57291C6.05815 0 6.47337 0.348357 6.5577 0.826215L6.91235 2.83594H24.851H24.8513C25.069 2.83589 25.2841 2.88413 25.481 2.97719C25.6781 3.07036 25.852 3.20612 25.9903 3.37466C26.1285 3.5432 26.2276 3.74034 26.2804 3.95185C26.3332 4.1633 26.3385 4.38384 26.2957 4.59757L26.2957 4.5977L24.5939 13.1068L24.5938 13.107C24.527 13.4409 24.3464 13.7414 24.083 13.9573C23.8195 14.1731 23.4893 14.2909 23.1487 14.2907L23.1424 14.2907V14.2907L8.91615 14.1908L9.24831 16.0731H23.5369C24.0892 16.0731 24.5369 16.5208 24.5369 17.0731C24.5369 17.6253 24.0892 18.0731 23.5369 18.0731H8.40933C7.92409 18.0731 7.50888 17.7247 7.42455 17.2468L4.73393 2H1.79102C1.23873 2 0.791016 1.55228 0.791016 1ZM8.56276 12.1883L22.7181 12.2876L24.2084 4.83594H7.26529L8.56276 12.1883ZM12.7911 21.7779C12.7911 22.4529 12.2439 23.0001 11.5689 23.0001C10.8939 23.0001 10.3467 22.4529 10.3467 21.7779C10.3467 21.1029 10.8939 20.5557 11.5689 20.5557C12.2439 20.5557 12.7911 21.1029 12.7911 21.7779ZM21.3468 21.7779C21.3468 22.4529 20.7996 23.0001 20.1246 23.0001C19.4496 23.0001 18.9023 22.4529 18.9023 21.7779C18.9023 21.1029 19.4496 20.5557 20.1246 20.5557C20.7996 20.5557 21.3468 21.1029 21.3468 21.7779Z" fill='inherit' />
  </symbol>
  <symbol id="logo" fill="inherit" xmlns="http://www.w3.org/2000/svg" viewBox="0 0 39 56">
    <path fill-rule="evenodd" clip-rule="evenodd" d="M17.791 2.20861C15.0404 2.45357 12.4698 3.36584 10.2346 4.78975L17.791 12.9941V8.50001V2.20861ZM8.60155 5.96891C7.56555 6.81237 6.6247 7.77579 5.79886 8.83925L17.8657 21.6442V16.0273L8.60155 5.96891ZM4.63845 10.5241C3.90665 11.7282 3.30972 13.0293 2.86992 14.4052L17.8657 30.1857V24.5605L4.63845 10.5241ZM2.29668 16.7053C2.10191 17.7798 2 18.8886 2 20.0228V22.058L17.8657 38.7161V33.089L2.29668 16.7053ZM2 24.9579V31.4234L11.6237 41.0684H17.3442L2 24.9579ZM2 34.2549V35.9772C2 37.7475 2.24819 39.456 2.71018 41.0684H8.79838L2 34.2549ZM3.41202 43.0684C4.08745 44.6837 4.98652 46.1746 6.06835 47.5H19.291L32.5151 47.5C33.5969 46.1746 34.4959 44.6837 35.1711 43.0684H19.2909H3.41202ZM35.8727 41.0684C36.3345 39.4561 36.5824 37.7476 36.5821 35.9774V35.9772V34.2548L29.7836 41.0684H35.8727ZM36.5821 31.4233V25.7286L21.2762 41.0684H26.9583L36.5821 31.4233ZM36.5821 22.897V20.0228C36.5821 19.1124 36.5164 18.2183 36.3898 17.3452L19.8657 33.1173V39.6505L36.5821 22.897ZM35.9038 15.0443C35.449 13.4176 34.7769 11.8874 33.9226 10.4888L19.8657 24.5769V30.3525L35.9038 15.0443ZM32.766 8.8164C31.9363 7.75138 30.991 6.7871 29.9502 5.94367L19.8657 16.0505V21.7453L32.766 8.8164ZM28.3042 4.76175C25.8099 3.1834 22.9008 2.24096 19.791 2.14945V8.50001V13.2938L28.3042 4.76175ZM30.6047 49.5L19.291 49.5H7.97877C11.0153 52.2173 14.9735 53.8579 19.291 53.8579C23.6095 53.8579 27.5681 52.2173 30.6047 49.5ZM19.291 0.142103C8.60823 0.142103 0 9.07415 0 20.0228V35.9772C0 46.9278 8.6083 55.8579 19.291 55.8579C29.9755 55.8579 38.5839 46.928 38.5821 35.9772V35.9771V20.0228C38.5821 9.07422 29.9758 0.142103 19.291 0.142103Z" fill="#7EB693"/>
  </symbol>

  <symbol id="arrow" fill="inherit" xmlns="http://www.w3.org/2000/svg"  viewBox="0 0 24 24">
  <path d="M6 12H18M18 12L13 7M18 12L13 17" stroke-width="2" stroke-linecap="round" stroke-linejoin="round"/>
  </symbol>

  <symbol id="star" fill="inherit" xmlns="http://www.w3.org/2000/svg" viewBox="0 0 15 14">
    <path d="M6.76839 1.09367C7.07599 0.189974 8.35411 0.189977 8.66172 1.09367L9.64524 3.98313C9.78318 4.3884 10.1638 4.66091 10.5919 4.66091H13.6721C14.6521 4.66091 15.0472 5.92416 14.242 6.48263L11.8313 8.15456C11.4644 8.40901 11.3106 8.87584 11.4545 9.29851L12.394 12.0586C12.7048 12.9718 11.6701 13.7523 10.8774 13.2025L8.28495 11.4046C7.9422 11.1668 7.48791 11.1668 7.14516 11.4046L4.55269 13.2025C3.76002 13.7523 2.72529 12.9718 3.03613 12.0586L3.97561 9.29851C4.11948 8.87584 3.96572 8.40901 3.59884 8.15456L1.1881 6.48263C0.382867 5.92416 0.778054 4.66091 1.758 4.66091H4.83821C5.26631 4.66091 5.64692 4.3884 5.78487 3.98313L6.76839 1.09367Z" fill="#FFA858"/>
  </symbol>
  <symbol id="list" fill="inherit" xmlns="http://www.w3.org/2000/svg" viewBox="0 0 24 24">
    <path d="M8 6L21 6.00078M8 12L21 12.0008M8 18L21 18.0007M3 6.5H4V5.5H3V6.5ZM3 12.5H4V11.5H3V12.5ZM3 18.5H4V17.5H3V18.5Z" stroke-width="2" stroke-linecap="round" stroke-linejoin="round"/>
  </symbol>
  <symbol id="facebook" viewBox="0 0 20 20" fill="inherit" xmlns="http://www.w3.org/2000/svg" >
  <path fill-rule="evenodd" clip-rule="evenodd" d="M19.2828 10.0001C19.2828 4.87304 14.9657 0.71582 9.64141 0.71582C4.31711 0.71582 0 4.87304 0 10.0001C0 14.634 3.52514 18.475 8.13494 19.1721V12.6847H5.68628V10.0001H8.13494V7.95469C8.13494 5.62822 9.5747 4.34209 11.7767 4.34209C12.8317 4.34209 13.9353 4.52364 13.9353 4.52364V6.80866H12.7189C11.5219 6.80866 11.1475 7.52405 11.1475 8.25933V10.0001H13.8212L13.3942 12.6847H11.1479V19.173C15.7577 18.4762 19.2828 14.6353 19.2828 10.0001Z" fill="#274C5B"/>
  </symbol>
  <symbol id="instagram" viewBox="0 0 20 20" fill="inherit" xmlns="http://www.w3.org/2000/svg" >
  <path d="M13.6585 2.26307C14.7231 2.26613 15.7431 2.67471 16.4958 3.39958C17.2486 4.12445 17.6729 5.1067 17.6761 6.13181V13.8685C17.6729 14.8936 17.2486 15.8758 16.4958 16.6007C15.7431 17.3256 14.7231 17.7342 13.6585 17.7372H5.6243C4.55976 17.7342 3.53973 17.3256 2.78698 16.6007C2.03423 15.8758 1.60994 14.8936 1.60676 13.8685V6.13181C1.60994 5.1067 2.03423 4.12445 2.78698 3.39958C3.53973 2.67471 4.55976 2.26613 5.6243 2.26307H13.6585ZM13.6585 0.71582H5.6243C2.53087 0.71582 0 3.15296 0 6.13181V13.8685C0 16.8473 2.53087 19.2845 5.6243 19.2845H13.6585C16.752 19.2845 19.2828 16.8473 19.2828 13.8685V6.13181C19.2828 3.15296 16.752 0.71582 13.6585 0.71582Z" fill="#274C5B"/>
  <path d="M14.8633 6.1326C14.6249 6.1326 14.3919 6.06454 14.1937 5.93702C13.9956 5.8095 13.8411 5.62824 13.7499 5.41618C13.6587 5.20412 13.6348 4.97078 13.6813 4.74565C13.7278 4.52053 13.8426 4.31374 14.0111 4.15144C14.1797 3.98913 14.3944 3.8786 14.6282 3.83382C14.862 3.78904 15.1043 3.81203 15.3245 3.89986C15.5447 3.9877 15.7329 4.13645 15.8654 4.3273C15.9978 4.51815 16.0685 4.74253 16.0685 4.97206C16.0688 5.12456 16.0379 5.27562 15.9774 5.41657C15.917 5.55752 15.8282 5.68559 15.7163 5.79342C15.6043 5.90125 15.4713 5.98673 15.3249 6.04493C15.1785 6.10314 15.0217 6.13293 14.8633 6.1326ZM9.64102 6.90602C10.2767 6.90602 10.8981 7.08754 11.4266 7.42761C11.9551 7.76768 12.3671 8.25104 12.6103 8.81656C12.8536 9.38209 12.9172 10.0044 12.7932 10.6047C12.6692 11.2051 12.3631 11.7565 11.9136 12.1894C11.4641 12.6222 10.8915 12.917 10.268 13.0364C9.64458 13.1558 8.99837 13.0945 8.4111 12.8603C7.82382 12.626 7.32187 12.2293 6.96872 11.7204C6.61557 11.2114 6.42707 10.6131 6.42707 10.0009C6.42798 9.18038 6.76689 8.39369 7.36942 7.81347C7.97196 7.23325 8.78891 6.9069 9.64102 6.90602ZM9.64102 5.35877C8.68757 5.35877 7.75554 5.63103 6.96278 6.14112C6.17002 6.65121 5.55214 7.37621 5.18727 8.22446C4.8224 9.0727 4.72694 10.0061 4.91294 10.9066C5.09895 11.8071 5.55808 12.6342 6.23227 13.2834C6.90645 13.9327 7.76542 14.3748 8.70055 14.5539C9.63567 14.733 10.605 14.6411 11.4858 14.2897C12.3667 13.9384 13.1196 13.3434 13.6493 12.58C14.179 11.8166 14.4617 10.9191 14.4617 10.0009C14.4617 8.76976 13.9538 7.58901 13.0498 6.71843C12.1457 5.84786 10.9196 5.35877 9.64102 5.35877Z" fill="#274C5B"/>

  </symbol>
  <symbol id="pinteres" viewBox="0 0 20 21" fill="inherit" xmlns="http://www.w3.org/2000/svg" >
  <path d="M9.79664 0.71582C4.38662 0.71582 0 5.10048 0 10.5081C0 14.5168 2.41417 17.9616 5.86486 19.4785C5.83862 18.7965 5.86049 17.9747 6.03543 17.2315C6.22349 16.4359 7.295 11.8939 7.295 11.8939C7.295 11.8939 6.9801 11.2687 6.9801 10.3463C6.9801 8.89499 7.81982 7.81084 8.86946 7.81084C9.76165 7.81084 10.1903 8.47969 10.1903 9.27968C10.1903 10.1758 9.61732 11.5135 9.3243 12.7551C9.07938 13.7955 9.84475 14.6392 10.8725 14.6392C12.7269 14.6392 13.9777 12.2567 13.9777 9.43269C13.9777 7.28626 12.5301 5.6819 9.9016 5.6819C6.932 5.6819 5.07763 7.89827 5.07763 10.3726C5.07763 11.225 5.3313 11.8283 5.72491 12.2917C5.90422 12.5059 5.93046 12.5933 5.86486 12.8381C5.81675 13.0174 5.71179 13.4501 5.66368 13.625C5.59808 13.8742 5.3969 13.9616 5.17385 13.8698C3.80494 13.3102 3.16641 11.8152 3.16641 10.1278C3.16641 7.34746 5.51498 4.01197 10.1684 4.01197C13.9077 4.01197 16.37 6.71795 16.37 9.62066C16.37 13.4633 14.2314 16.331 11.0824 16.331C10.0241 16.331 9.03128 15.7583 8.69014 15.1113C8.69014 15.1113 8.12159 17.367 7.99913 17.8042C7.79357 18.5605 7.38684 19.3124 7.01509 19.9025C7.91686 20.1684 8.85208 20.3039 9.79226 20.3047C15.2023 20.3047 19.5889 15.9201 19.5889 10.5125C19.5889 5.10485 15.2067 0.71582 9.79664 0.71582Z" fill="#274C5B"/>
  </symbol>
  <symbol id="twiter" viewBox="0 0 21 18" fill="inherit" xmlns="http://www.w3.org/2000/svg" >
  <path d="M20.6602 2.67424C19.8852 3.01098 19.0652 3.23283 18.2261 3.33278C19.1079 2.81644 19.7711 1.99614 20.0912 1.02573C19.2575 1.51322 18.3469 1.85527 17.3984 2.03722C16.9991 1.61865 16.5187 1.28566 15.9866 1.0585C15.4546 0.831346 14.8818 0.714758 14.3033 0.715828C11.9609 0.715828 10.0654 2.58385 10.0654 4.8866C10.0637 5.2069 10.1004 5.52625 10.1747 5.83783C8.49507 5.75909 6.85036 5.33061 5.34581 4.57982C3.84126 3.82903 2.50999 2.77244 1.43717 1.47767C1.0608 2.11216 0.861758 2.8361 0.86084 3.57382C0.86084 5.02003 1.61537 6.29838 2.75469 7.04731C2.07967 7.03129 1.41849 6.85263 0.827268 6.5265V6.57815C0.827268 8.60112 2.2907 10.2841 4.22759 10.6671C3.86336 10.7642 3.48803 10.8134 3.11108 10.8135C2.84361 10.814 2.57674 10.788 2.31437 10.736C2.85283 12.3931 4.41999 13.5983 6.27639 13.6327C4.76793 14.7953 2.91593 15.4236 1.01149 15.419C0.673443 15.4185 0.335713 15.3984 0 15.3587C1.9374 16.5958 4.18947 17.2502 6.48815 17.244C14.2943 17.244 18.5589 10.8867 18.5589 5.37297C18.5589 5.1922 18.5541 5.01142 18.5455 4.83495C19.3733 4.24616 20.0893 3.51447 20.6602 2.67424Z" fill="#274C5B"/>
  </symbol>

</svg>  